<svg xmlns="http://www.w3.org/2000/svg" version="1.1" xmlns:xlink="http://www.w3.org/1999/xlink" width="50" height="50" x="0" y="0" viewBox="0 0 173.397 173.397" style="enable-background:new 0 0 512 512" xml:space="preserve" fill-rule="evenodd" class=""><g><path d="M34.562 61.993v49.41c0 4.379-8.021 4.379-8.021 0v-49.41c0-4.378 8.02-4.378 8.02 0zM50.604 48.277v76.843c0 4.378-8.021 4.378-8.021 0V48.277c0-4.378 8.02-4.378 8.02 0zM66.646 75.281v22.835c0 4.378-8.021 4.378-8.021 0V75.28c0-4.378 8.021-4.378 8.021 0zM82.688 61.119v51.16c0 4.377-8.021 4.377-8.021 0v-51.16c0-4.378 8.021-4.378 8.021 0zM98.73 33.847V139.55c0 4.378-8.02 4.378-8.02 0V33.847c0-4.378 8.02-4.378 8.02 0zM114.772 48.285v76.827c0 4.378-8.021 4.378-8.021 0V48.285c0-4.378 8.021-4.378 8.021 0zM130.814 72.18v29.037c0 4.378-8.021 4.378-8.021 0V72.18c0-4.378 8.021-4.378 8.021 0zM146.857 61.996v49.405c0 4.378-8.021 4.378-8.021 0V61.996c0-4.378 8.021-4.378 8.021 0zM162.899 72.172v29.053c0 4.378-8.021 4.378-8.021 0V72.172c0-4.378 8.021-4.378 8.021 0zM18.52 72.172v29.053c0 4.378-8.021 4.378-8.021 0V72.172c0-4.378 8.02-4.378 8.02 0z" fill="#f1f1f1" opacity="1" data-original="#000000" class=""></path></g></svg>