<svg xmlns="http://www.w3.org/2000/svg" version="1.1" xmlns:xlink="http://www.w3.org/1999/xlink" width="50" height="50" x="0" y="0" viewBox="0 0 512 512" style="enable-background:new 0 0 512 512" xml:space="preserve" class=""><g><g data-name="Layer 2"><circle cx="256" cy="256" r="256" fill="#fa1100" opacity="1" data-original="#f44336" class=""></circle><path fill="#ffffff" d="M348.6 391a42.13 42.13 0 0 1-30-12.42L256 316l-62.6 62.61a42.41 42.41 0 1 1-60-60L196 256l-62.61-62.6a42.41 42.41 0 0 1 60-60L256 196l62.6-62.61a42.41 42.41 0 1 1 60 60L316 256l62.61 62.6a42.41 42.41 0 0 1-30 72.4z" opacity="1" data-original="#ffffff" class=""></path></g></g></svg>