<svg xmlns="http://www.w3.org/2000/svg" version="1.1" xmlns:xlink="http://www.w3.org/1999/xlink" width="50" height="50" x="0" y="0" viewBox="0 0 48 48" style="enable-background:new 0 0 512 512" xml:space="preserve" class=""><g><path fill="#c5d4dd" d="M43 15.34v17.32c0 1.43-.76 2.75-2 3.46l-15 8.66c-.62.36-1.31.54-2 .54V23.97l18.45-10.65c.36.6.55 1.3.55 2.02z" opacity="1" data-original="#c5d4dd" class=""></path><path fill="#e9eef2" d="M24 23.97v21.35c-.69 0-1.38-.18-2-.54L7 36.12c-1.24-.71-2-2.03-2-3.46V15.34c0-.72.19-1.42.55-2.02z" opacity="1" data-original="#e9eef2" class=""></path><path fill="#f9f9f9" d="M42.45 13.32 24 23.97 5.55 13.32c.34-.59.84-1.09 1.45-1.44l15-8.66c1.24-.72 2.76-.72 4 0l15 8.66c.61.35 1.11.85 1.45 1.44z" opacity="1" data-original="#f9f9f9" class=""></path><g fill="#09105a"><path d="M26.117 11.77c1.175.678 1.175 1.78.007 2.459s-3.064.678-4.238 0-1.187-1.78-.02-2.459 3.076-.678 4.251 0zM18.776 34.994c.977.564 1.766 1.931 1.763 3.053-.003 1.13-.797 1.582-1.774 1.018-.983-.568-1.772-1.934-1.769-3.064.003-1.122.797-1.575 1.781-1.007zM14.509 27.465c.977.564 1.766 1.931 1.763 3.053-.003 1.13-.797 1.582-1.774 1.018-.983-.568-1.772-1.934-1.769-3.064.003-1.122.797-1.575 1.781-1.007zM10.242 19.936c.977.564 1.766 1.931 1.763 3.053-.003 1.13-.797 1.582-1.774 1.018-.983-.568-1.772-1.934-1.769-3.064.003-1.122.797-1.575 1.781-1.007zM29.933 25.435c.983-.568 1.778-.115 1.781 1.015.003 1.122-.786 2.489-1.769 3.057-.977.564-1.778.115-1.781-1.007-.003-1.13.792-2.5 1.769-3.064zM37.027 21.34c.983-.568 1.777-.115 1.781 1.015.003 1.122-.786 2.489-1.769 3.057-.977.564-1.771.111-1.774-1.011-.003-1.13.786-2.497 1.763-3.061zM29.957 33.586c.983-.568 1.778-.115 1.781 1.015.003 1.122-.786 2.489-1.769 3.057-.977.564-1.778.115-1.781-1.007-.003-1.13.792-2.5 1.769-3.064zM37.05 29.491c.983-.568 1.777-.115 1.781 1.015.003 1.122-.786 2.489-1.769 3.057-.977.564-1.771.111-1.774-1.011-.003-1.13.786-2.497 1.763-3.061z" fill="#333333" opacity="1" data-original="#09105a" class=""></path><path d="m41.5 11.009-15-8.66a5.015 5.015 0 0 0-5 0l-15 8.661A5.015 5.015 0 0 0 4 15.34v17.32c0 1.781.958 3.44 2.5 4.33l15 8.66c.771.445 1.636.668 2.5.668s1.729-.223 2.5-.668l15-8.66a5.013 5.013 0 0 0 2.5-4.33V15.34c0-1.78-.958-3.439-2.5-4.331zm-19-6.927a3.001 3.001 0 0 1 3 0l15 8.66c.151.087.276.204.408.314L24 22.816l-16.907-9.76c.131-.11.257-.227.407-.314zm-15 31.176A3.006 3.006 0 0 1 6 32.66V15.34c0-.192.039-.377.075-.562L23 24.548v19.577c-.17-.06-.341-.115-.5-.206l-15-8.66zM42 32.66a3.008 3.008 0 0 1-1.5 2.598l-15 8.66c-.159.092-.33.146-.5.206V24.548l16.925-9.77c.036.185.075.37.075.562z" fill="#333333" opacity="1" data-original="#09105a" class=""></path></g></g></svg>