<svg width="796" height="713" viewBox="0 0 796 713" fill="none" xmlns="http://www.w3.org/2000/svg">
<g filter="url(#filter0_d_6_14)">
<path d="M538.917 229.114L621.976 81.4199C625.76 74.691 618.308 67.2379 611.578 71.0225L463.884 154.082C453.86 159.719 441.476 152.475 441.476 140.974V122.662C441.476 115.86 433.252 112.453 428.442 117.262L381.438 164.267C371.965 173.74 355.767 167.031 355.767 153.634C355.767 146.832 347.543 143.426 342.734 148.235L214.775 276.195C159.075 331.894 159.075 422.524 214.775 478.225C270.475 533.925 361.104 533.925 416.805 478.225L544.762 350.265C549.572 345.456 546.166 337.232 539.363 337.232C525.966 337.232 519.258 321.035 528.73 311.561L575.735 264.556C580.544 259.747 577.139 251.523 570.336 251.523H552.023C540.523 251.523 533.28 239.138 538.917 229.114Z" fill="#D400FF"/>
<path d="M595.607 80.0048L521.531 211.727C515.893 221.751 523.137 234.136 534.638 234.136H537.157C537.429 232.442 538 230.747 538.918 229.114L621.977 81.4199C625.761 74.691 618.309 67.2379 611.579 71.0224L595.607 80.0048ZM511.344 294.174C501.871 303.647 508.58 319.845 521.977 319.845H524.475C524.928 316.899 526.287 314.007 528.732 311.562L575.736 264.557C580.545 259.748 577.14 251.524 570.337 251.524H553.996L511.344 294.174ZM528.089 332.166L399.418 460.838C346.647 513.609 262.528 516.374 206.46 469.153C209.101 472.294 211.876 475.321 214.775 478.225C270.475 533.925 361.105 533.925 416.805 478.225L544.764 350.265C549.573 345.456 546.167 337.232 539.364 337.232C534.628 337.232 530.734 335.203 528.089 332.166Z" fill="url(#paint0_linear_6_14)"/>
<path d="M236.042 297.461L319.238 214.264C321.62 211.883 325.692 213.569 325.692 216.938V217.167C325.692 233.913 345.94 242.3 357.781 230.458L404.947 183.292C407.329 180.91 411.402 182.597 411.402 185.965C411.402 200.341 426.883 209.396 439.413 202.349L544.728 143.122C548.06 141.249 551.751 144.939 549.877 148.271L490.65 253.587C483.604 266.116 492.658 281.597 507.034 281.597H507.035C510.403 281.597 512.09 285.67 509.708 288.052L462.542 335.218C450.7 347.06 459.087 367.307 475.834 367.307H476.062C479.43 367.307 481.118 371.38 478.736 373.762L395.54 456.959L236.042 297.461Z" fill="url(#paint1_linear_6_14)"/>
<path d="M450.821 401.676C452.278 393.602 453.01 385.414 453.008 377.21C453.008 301.548 391.453 239.993 315.791 239.993C307.442 239.993 299.266 240.744 291.324 242.179L236.042 297.461L395.539 456.958L450.821 401.676Z" fill="#FFD500"/>
<path d="M315.79 489.992C378.077 489.992 428.571 439.498 428.571 377.21C428.571 314.922 378.077 264.428 315.79 264.428C253.502 264.428 203.008 314.922 203.008 377.21C203.008 439.498 253.502 489.992 315.79 489.992Z" fill="#B6C4CF"/>
<path d="M379.313 284.013C391.668 302.104 398.897 323.975 398.897 347.536C398.897 409.824 348.404 460.318 286.116 460.318C262.554 460.318 240.684 453.088 222.592 440.733C242.9 470.469 277.063 489.991 315.788 489.991C378.076 489.991 428.57 439.497 428.57 377.209C428.57 338.484 409.049 304.321 379.313 284.013Z" fill="#9FACBA"/>
<path d="M316.508 443.235C331.116 428.627 327.818 401.643 309.141 382.966C290.464 364.289 263.481 360.991 248.872 375.6C234.264 390.209 237.562 417.192 256.239 435.869C274.916 454.546 301.899 457.844 316.508 443.235Z" fill="#7A8C98"/>
<path d="M315.788 339.616C328.246 339.616 338.344 329.517 338.344 317.059C338.344 304.602 328.246 294.503 315.788 294.503C303.331 294.503 293.232 304.602 293.232 317.059C293.232 329.517 303.331 339.616 315.788 339.616Z" fill="#7A8C98"/>
<path d="M380.975 409.442C389.279 409.442 396.012 402.71 396.012 394.405C396.012 386.1 389.279 379.368 380.975 379.368C372.67 379.368 365.938 386.1 365.938 394.405C365.938 402.71 372.67 409.442 380.975 409.442Z" fill="#7A8C98"/>
<path d="M372.18 332.098C376.333 332.098 379.699 328.731 379.699 324.578C379.699 320.426 376.333 317.059 372.18 317.059C368.027 317.059 364.661 320.426 364.661 324.578C364.661 328.731 368.027 332.098 372.18 332.098Z" fill="#9FACBA"/>
<path d="M344.923 370.63C349.075 370.63 352.442 367.264 352.442 363.111C352.442 358.959 349.075 355.592 344.923 355.592C340.77 355.592 337.404 358.959 337.404 363.111C337.404 367.264 340.77 370.63 344.923 370.63Z" fill="#9FACBA"/>
<path d="M362.589 452.377C366.741 452.377 370.108 449.011 370.108 444.858C370.108 440.706 366.741 437.339 362.589 437.339C358.436 437.339 355.07 440.706 355.07 444.858C355.07 449.011 358.436 452.377 362.589 452.377Z" fill="#7A8C98"/>
<path d="M254.444 332.098C258.596 332.098 261.963 328.731 261.963 324.578C261.963 320.426 258.596 317.059 254.444 317.059C250.291 317.059 246.925 320.426 246.925 324.578C246.925 328.731 250.291 332.098 254.444 332.098Z" fill="#9FACBA"/>
<path d="M421.521 278.069C420.217 278.069 418.942 277.682 417.858 276.958C416.774 276.234 415.929 275.204 415.43 274C414.931 272.795 414.801 271.47 415.055 270.191C415.309 268.913 415.937 267.738 416.859 266.816L465.261 218.414C466.499 217.187 468.173 216.5 469.916 216.503C471.659 216.507 473.33 217.201 474.563 218.434C475.795 219.666 476.49 221.337 476.494 223.08C476.497 224.824 475.811 226.498 474.583 227.736L426.181 276.138C425.57 276.751 424.844 277.237 424.044 277.568C423.244 277.9 422.386 278.07 421.521 278.069ZM438.908 311.433C437.604 311.433 436.33 311.046 435.246 310.322C434.162 309.598 433.317 308.568 432.818 307.364C432.319 306.159 432.188 304.834 432.442 303.555C432.697 302.277 433.324 301.102 434.246 300.18L455.863 278.564C457.101 277.336 458.775 276.649 460.518 276.653C462.261 276.657 463.932 277.351 465.165 278.583C466.397 279.816 467.092 281.487 467.095 283.23C467.099 284.973 466.413 286.647 465.185 287.885L443.57 309.502C442.958 310.115 442.231 310.601 441.431 310.932C440.631 311.264 439.774 311.434 438.908 311.433ZM388.157 260.681C386.853 260.681 385.578 260.295 384.494 259.571C383.41 258.846 382.565 257.817 382.066 256.612C381.567 255.408 381.437 254.083 381.691 252.804C381.945 251.525 382.573 250.351 383.495 249.429L405.111 227.812C406.349 226.585 408.023 225.898 409.766 225.902C411.51 225.905 413.18 226.599 414.413 227.832C415.646 229.065 416.34 230.735 416.344 232.479C416.348 234.222 415.661 235.896 414.434 237.134L392.817 258.75C392.206 259.364 391.48 259.85 390.68 260.181C389.88 260.513 389.022 260.683 388.157 260.681Z" fill="#D600E9"/>
</g>
<path d="M79.4697 713L20.583 615.808H54.7871L113.894 713H79.4697ZM113.894 703.771L85.6953 657.336V615.808H113.894V703.771ZM20.583 713V625.036L48.7812 671.252V713H20.583ZM147.951 713L128.542 693.591V654.626L147.951 635.217H160.915V713H147.951ZM166.042 681.799V668.249H183.107V654.626H166.042V635.217H193.508L212.917 654.626V681.799H166.042ZM166.042 713V694.836H209.548V703.259L199.88 713H166.042ZM278.029 713V654.626H264.113V646.13L274.953 635.217H292.971L310.476 652.722V713H278.029ZM226.174 713V635.217H258.84V713H226.174ZM323 713V694.177L373.537 635.217H395.876V654.626L344.68 713H323ZM323.732 654.626V635.217H367.458L350.686 654.626H323.732ZM350.686 713L367.897 693.591H395.949V713H350.686ZM458.205 713V654.626H412.136V644.958L421.877 635.217H470.437L489.846 654.626V713H458.205ZM418.654 713L405.617 700.183V680.7L418.654 667.736H453.078V681.213H436.379V694.836H453.078V703.405L443.41 713H418.654ZM542.653 713V693.591H566.677V635.217H542.653V615.808H579.641L599.123 635.217V693.591L579.641 713H542.653ZM505.153 713V615.808H537.526V713H505.153ZM631.936 713L612.526 693.591V654.626L631.936 635.217H644.899V713H631.936ZM650.026 681.799V668.249H667.092V654.626H650.026V635.217H677.492L696.901 654.626V681.799H650.026ZM650.026 713V694.836H693.532V703.259L683.864 713H650.026ZM751.32 713L699.465 635.217H733.156L784.938 713H751.32ZM762.526 671.105L745.827 645.983L751.32 635.217H784.938L762.526 671.105ZM699.465 713L721.071 675.939L738.43 702.087L733.156 713H699.465Z" fill="url(#paint2_linear_6_14)"/>
<defs>
<filter id="filter0_d_6_14" x="173" y="0" width="517" height="520" filterUnits="userSpaceOnUse" color-interpolation-filters="sRGB">
<feFlood flood-opacity="0" result="BackgroundImageFix"/>
<feColorMatrix in="SourceAlpha" type="matrix" values="0 0 0 0 0 0 0 0 0 0 0 0 0 0 0 0 0 0 127 0" result="hardAlpha"/>
<feOffset dx="37" dy="-40"/>
<feGaussianBlur stdDeviation="15"/>
<feComposite in2="hardAlpha" operator="out"/>
<feColorMatrix type="matrix" values="0 0 0 0 0 0 0 0 0 1 0 0 0 0 0.883333 0 0 0 1 0"/>
<feBlend mode="normal" in2="BackgroundImageFix" result="effect1_dropShadow_6_14"/>
<feBlend mode="normal" in="SourceGraphic" in2="effect1_dropShadow_6_14" result="shape"/>
</filter>
<linearGradient id="paint0_linear_6_14" x1="414.73" y1="70" x2="414.73" y2="520" gradientUnits="userSpaceOnUse">
<stop stop-color="#00B59C"/>
<stop offset="1" stop-color="#4A0059"/>
</linearGradient>
<linearGradient id="paint1_linear_6_14" x1="393.212" y1="142.616" x2="393.212" y2="456.959" gradientUnits="userSpaceOnUse">
<stop stop-color="#8AF1FF"/>
<stop offset="1" stop-color="#A900D6"/>
</linearGradient>
<linearGradient id="paint2_linear_6_14" x1="398" y1="632" x2="398" y2="707" gradientUnits="userSpaceOnUse">
<stop offset="0.293269" stop-color="#00B59C"/>
<stop offset="1" stop-color="#A900D6"/>
</linearGradient>
</defs>
</svg>
