<svg xmlns="http://www.w3.org/2000/svg" version="1.1" xmlns:xlink="http://www.w3.org/1999/xlink" width="50" height="50" x="0" y="0" viewBox="0 0 24 24" style="enable-background:new 0 0 512 512" xml:space="preserve" class=""><g><path fill="#333333" d="M12 0a12 12 0 1 0 12 12A12 12 0 0 0 12 0zm0 9a3 3 0 1 1-3 3 3 3 0 0 1 3-3zm0 14A11 11 0 0 1 1 12s0-.05 0-.08a31.5 31.5 0 0 0 6 .57 5 5 0 0 0 9.9 0 31.5 31.5 0 0 0 6-.57s.1.08.1.08a11 11 0 0 1-11 11z" opacity="1" data-original="#303c42" class=""></path></g></svg>