<svg xmlns="http://www.w3.org/2000/svg" version="1.1" xmlns:xlink="http://www.w3.org/1999/xlink" width="50" height="50" x="0" y="0" viewBox="0 0 64 64" style="enable-background:new 0 0 512 512" xml:space="preserve" class=""><g><path d="M37.081 2.417a1 1 0 0 0-1 1v57.166a1 1 0 1 0 2 0V3.417a1 1 0 0 0-1-1zM45.541 16.615a15.707 15.707 0 0 0-3.193.336 1 1 0 0 0-.368 1.797 15.551 15.551 0 0 1 6.64 12.118 15.665 15.665 0 0 1-7.549 14.105 1 1 0 0 0 .236 1.815 14.936 14.936 0 0 0 4.909.581 15.29 15.29 0 0 0 10.669-4.984 15.27 15.27 0 0 0 4.02-11.063 15.357 15.357 0 0 0-15.364-14.705zm9.868 24.418a13.3 13.3 0 0 1-9.283 4.337c-.206.009-.41.014-.613.014h-.001c-.485 0-.967-.026-1.443-.078a17.659 17.659 0 0 0 6.548-14.528c-.208-4.702-2.224-9.017-5.612-12.151A13.357 13.357 0 0 1 58.906 31.41a13.29 13.29 0 0 1-3.497 9.623zM19.038 22.205c-5.401 0-9.795 4.394-9.795 9.795 0 5.402 4.394 9.797 9.795 9.797s9.795-4.395 9.795-9.797c0-5.401-4.394-9.795-9.795-9.795zm0 17.592c-4.298 0-7.795-3.498-7.795-7.797 0-4.298 3.497-7.795 7.795-7.795s7.795 3.497 7.795 7.795c0 4.299-3.497 7.797-7.795 7.797zM19.038 21.994a1 1 0 0 0 1-1v-3.951a1 1 0 1 0-2 0v3.951a1 1 0 0 0 1 1zM19.038 42.006a1 1 0 0 0-1 1v3.951a1 1 0 1 0 2 0v-3.951a1 1 0 0 0-1-1zM33.994 31h-3.951a1 1 0 1 0 0 2h3.951a1 1 0 1 0 0-2zM9.032 32a1 1 0 0 0-1-1H4.081a1 1 0 1 0 0 2h3.951a1 1 0 0 0 1-1z" fill="#333333" opacity="1" data-original="#000000" class=""></path><path d="M10.727 24.715a.998.998 0 0 0 1.414.036 1 1 0 0 0 .036-1.414l-2.723-2.863a1 1 0 0 0-1.45 1.379zM27.348 39.285a1 1 0 0 0-1.45 1.379l2.723 2.863a.998.998 0 0 0 1.414.036 1 1 0 0 0 .036-1.414zM10.727 39.287l-2.723 2.861a1.001 1.001 0 0 0 1.449 1.378l2.723-2.861c.38-.4.365-1.033-.035-1.414a1.005 1.005 0 0 0-1.414.036zM26.624 25.025a.998.998 0 0 0 .725-.311l2.723-2.863a1.001 1.001 0 0 0-1.45-1.379l-2.723 2.863a1 1 0 0 0 .725 1.69z" fill="#333333" opacity="1" data-original="#000000" class=""></path></g></svg>