<svg xmlns="http://www.w3.org/2000/svg" version="1.1" xmlns:xlink="http://www.w3.org/1999/xlink" width="50" height="50" x="0" y="0" viewBox="0 0 100 100" style="enable-background:new 0 0 512 512" xml:space="preserve" class=""><g><path d="M50 2.5C23.766 2.5 2.5 23.766 2.5 50S23.766 97.5 50 97.5 97.5 76.234 97.5 50 76.234 2.5 50 2.5zm0 89.063C27.046 91.563 8.437 72.953 8.437 50S27.047 8.438 50 8.438 91.563 27.046 91.563 50 72.953 91.563 50 91.563z" fill="#333333" opacity="1" data-original="#000000" class=""></path><path d="M50 15.885c-18.841.004-34.112 15.28-34.108 34.122C15.896 68.843 31.164 84.11 50 84.115a2.586 2.586 0 0 0 2.586-2.587V18.472A2.586 2.586 0 0 0 50 15.885z" fill="#333333" opacity="1" data-original="#000000" class=""></path></g></svg>